<svg width="22" height="18" viewBox="0 0 22 18" fill="none" xmlns="http://www.w3.org/2000/svg">
<path d="M21.61 2.0789C20.8148 2.4315 19.9605 2.66984 19.0637 2.77701C19.979 2.22832 20.682 1.35949 21.013 0.324149C20.1563 0.832279 19.2075 1.20121 18.1976 1.4C17.3889 0.538349 16.2366 0 14.9614 0C12.513 0 10.5279 1.98495 10.5279 4.43337C10.5279 4.78086 10.5671 5.11924 10.6427 5.44377C6.95807 5.25882 3.69121 3.49381 1.50455 0.811428C1.12292 1.46623 0.904242 2.22781 0.904242 3.04033C0.904242 4.57852 1.68693 5.93556 2.87657 6.73061C2.14981 6.70757 1.46618 6.50814 0.868492 6.17606C0.86807 6.19454 0.86807 6.21311 0.86807 6.23181C0.86807 8.37989 2.39634 10.1717 4.42447 10.5791C4.0525 10.6804 3.66078 10.7347 3.25643 10.7347C2.97074 10.7347 2.69301 10.7069 2.42226 10.6551C2.98648 12.4164 4.62377 13.6983 6.56386 13.734C5.04652 14.9232 3.13484 15.6319 1.05762 15.6319C0.699749 15.6319 0.346857 15.611 0 15.5698C1.96203 16.8279 4.29249 17.5619 6.7962 17.5619C14.9511 17.5619 19.4105 10.8062 19.4105 4.94741C19.4105 4.7552 19.4061 4.564 19.3976 4.37382C20.264 3.74878 21.0156 2.96795 21.61 2.0789Z" fill="white"/>
</svg>
