<svg width="20" height="20" viewBox="0 0 20 20" fill="none" xmlns="http://www.w3.org/2000/svg">
<path d="M7.26901 9.73451C7.26901 9.91848 7.12183 10.0657 6.93786 10.0657H5.69501C5.51104 10.0657 5.36386 9.91848 5.36386 9.73451V8.49166C5.36386 8.30769 5.51104 8.16051 5.69501 8.16051H6.93786C7.12183 8.16051 7.26901 8.30769 7.26901 8.49166V9.73451ZM9.86509 8.49575C9.86509 8.31178 9.71791 8.1646 9.53393 8.1646H8.29109C8.10711 8.1646 7.95993 8.31178 7.95993 8.49575V9.7386C7.95993 9.92257 8.10711 10.0697 8.29109 10.0697H9.53393C9.71791 10.0697 9.86509 9.92257 9.86509 9.7386V8.49575ZM12.4612 8.49575C12.4612 8.31178 12.314 8.1646 12.13 8.1646H10.8872C10.7032 8.1646 10.556 8.31178 10.556 8.49575V9.7386C10.556 9.92257 10.7032 10.0697 10.8872 10.0697H12.13C12.314 10.0697 12.4612 9.92257 12.4612 9.7386V8.49575ZM7.26901 11.0223C7.26901 10.8384 7.12183 10.6912 6.93786 10.6912H5.69501C5.51104 10.6912 5.36386 10.8384 5.36386 11.0223V12.2652C5.36386 12.4491 5.51104 12.5963 5.69501 12.5963H6.93786C7.12183 12.5963 7.26901 12.4491 7.26901 12.2652V11.0223ZM9.86509 11.0223C9.86509 10.8384 9.71791 10.6912 9.53393 10.6912H8.29109C8.10711 10.6912 7.95993 10.8384 7.95993 11.0223V12.2652C7.95993 12.4491 8.10711 12.5963 8.29109 12.5963H9.53393C9.71791 12.5963 9.86509 12.4491 9.86509 12.2652V11.0223ZM12.13 10.6912H10.8872C10.7032 10.6912 10.556 10.8384 10.556 11.0223V12.2652C10.556 12.4491 10.7032 12.5963 10.8872 12.5963H12.13C12.314 12.5963 12.4612 12.4491 12.4612 12.2652V11.0223C12.4612 10.8384 12.314 10.6912 12.13 10.6912ZM4.33769 13.2177H3.09894C2.91496 13.2177 2.76778 13.3649 2.76778 13.5489V14.7917C2.76778 14.9757 2.91496 15.1229 3.09894 15.1229H4.34178C4.52576 15.1229 4.67294 14.9757 4.67294 14.7917V13.5489C4.67294 13.3649 4.52167 13.2177 4.33769 13.2177ZM4.67294 11.0223C4.67294 10.8384 4.52576 10.6912 4.34178 10.6912H3.09894C2.91496 10.6912 2.76778 10.8384 2.76778 11.0223V12.2652C2.76778 12.4491 2.91496 12.5963 3.09894 12.5963H4.34178C4.52576 12.5963 4.67294 12.4491 4.67294 12.2652V11.0223ZM9.53393 13.2177H8.29109C8.10711 13.2177 7.95993 13.3649 7.95993 13.5489V14.7917C7.95993 14.9757 8.10711 15.1229 8.29109 15.1229H9.53393C9.71791 15.1229 9.86509 14.9757 9.86509 14.7917V13.5489C9.86509 13.3649 9.71791 13.2177 9.53393 13.2177ZM6.93786 13.2177H5.69501C5.51104 13.2177 5.36386 13.3649 5.36386 13.5489V14.7917C5.36386 14.9757 5.51104 15.1229 5.69501 15.1229H6.93786C7.12183 15.1229 7.26901 14.9757 7.26901 14.7917V13.5489C7.26901 13.3649 7.12183 13.2177 6.93786 13.2177ZM14.7261 10.0697C14.9101 10.0697 15.0572 9.92257 15.0572 9.7386V8.49575C15.0572 8.31178 14.9101 8.1646 14.7261 8.1646H13.4832C13.2993 8.1646 13.1521 8.31178 13.1521 8.49575V9.7386C13.1521 9.92257 13.2993 10.0697 13.4832 10.0697H14.7261ZM1.95012 17.8212H11.3818C11.2306 17.3469 11.1447 16.84 11.1406 16.3167H1.95012C1.70482 16.3167 1.50859 16.1164 1.50859 15.8751V6.99125H16.296V11.1245C16.8193 11.1286 17.3262 11.2063 17.8005 11.3576V3.88005C17.8005 2.80483 16.9256 1.92993 15.8504 1.92993H13.6672V0.727967C13.6672 0.33549 13.3483 0.0166016 12.9558 0.0166016H11.8479C11.4554 0.0166016 11.1365 0.33549 11.1365 0.727967V1.93402H6.66394V0.727967C6.66394 0.33549 6.34505 0.0166016 5.95258 0.0166016H4.84464C4.45217 0.0166016 4.13328 0.33549 4.13328 0.727967V1.93402H1.95012C0.874898 1.93402 0 2.80892 0 3.88414V15.8751C0 16.9463 0.874898 17.8212 1.95012 17.8212ZM20 16.2594C20 18.3159 18.332 19.9839 16.2756 19.9839C14.2191 19.9839 12.5511 18.3159 12.5511 16.2594C12.5511 14.203 14.2191 12.535 16.2756 12.535C18.332 12.535 20 14.203 20 16.2594ZM18.1562 15.2946C18.1562 15.176 18.1112 15.0616 18.0253 14.9798C17.8495 14.804 17.5675 14.804 17.3917 14.9798L15.7727 16.5988L15.1513 15.9774C14.9755 15.8016 14.6934 15.8016 14.5176 15.9774C14.4317 16.0632 14.3868 16.1736 14.3868 16.2922C14.3868 16.4107 14.4317 16.5252 14.5176 16.607L15.4538 17.5432C15.6296 17.719 15.9117 17.719 16.0875 17.5432L18.0213 15.6094C18.1112 15.5276 18.1562 15.4132 18.1562 15.2946Z" fill="#333333"/>
</svg>
