<svg width="20" height="16" viewBox="0 0 20 16" fill="none" xmlns="http://www.w3.org/2000/svg">
<path d="M20 12.9999C20 13.4384 19.8767 13.8448 19.6791 14.2024L13.3643 7.13707L19.6106 1.67207C19.8536 2.05767 20 2.51063 20 3.00011V12.9999ZM10 8.41994L18.6916 0.814997C18.335 0.619742 17.9333 0.5 17.5001 0.5H2.49998C2.06619 0.5 1.66443 0.619742 1.3092 0.814997L10 8.41994ZM12.4232 7.95985L10.4113 9.72131C10.2936 9.82382 10.1471 9.87501 10 9.87501C9.85287 9.87501 9.70633 9.82382 9.58865 9.72131L7.57633 7.95976L1.18163 15.1155C1.56493 15.3559 2.01413 15.5 2.49994 15.5H17.5001C17.9858 15.5 18.4352 15.3559 18.8184 15.1155L12.4232 7.95985ZM0.389439 1.67203C0.146493 2.05763 0 2.51059 0 3.00011V13C0 13.4384 0.122751 13.8449 0.321056 14.2025L6.63513 7.13588L0.389439 1.67203Z" fill="#333333"/>
</svg>
