<svg width="14" height="20" viewBox="0 0 14 20" fill="none" xmlns="http://www.w3.org/2000/svg">
<path d="M13.4524 4.9778C13.3812 4.71098 13.2366 4.42669 13.1297 4.17778C11.8499 1.10222 9.05369 0 6.79587 0C3.77337 0 0.44444 2.02672 0 6.20426V7.05776C0 7.09337 0.0122758 7.41334 0.029713 7.57339C0.278856 9.5643 1.84984 11.6802 3.02311 13.6711C4.28538 15.8042 5.59517 17.9025 6.89282 20C7.69298 18.6312 8.49026 17.2444 9.27219 15.9111C9.4853 15.5198 9.73268 15.1288 9.94601 14.7553C10.0882 14.5066 10.3599 14.2579 10.484 14.0266C11.7462 11.7156 13.7779 9.38677 13.7779 7.09333V6.15116C13.7779 5.90253 13.4697 5.03141 13.4524 4.9778ZM6.85121 9.26233C5.96274 9.26233 4.99026 8.81808 4.51025 7.5912C4.43873 7.3959 4.4445 7.00451 4.4445 6.96866V6.41755C4.4445 4.8535 5.77252 4.14225 6.92784 4.14225C8.35016 4.14225 9.45019 5.28018 9.45019 6.7025C9.45019 8.12478 8.27353 9.26233 6.85121 9.26233Z" fill="#333333"/>
</svg>
