<svg width="19" height="19" viewBox="0 0 19 19" fill="none" xmlns="http://www.w3.org/2000/svg">
<path d="M15.2053 12.2302C14.5519 11.5851 13.7362 11.5851 13.087 12.2302C12.5917 12.7213 12.0964 13.2124 11.6095 13.7118C11.4763 13.8491 11.364 13.8782 11.2017 13.7867C10.8812 13.6119 10.5399 13.4704 10.232 13.2789C8.79613 12.3758 7.59337 11.2147 6.52794 9.90788C5.99939 9.25864 5.52911 8.56361 5.20032 7.7812C5.13374 7.62305 5.14622 7.519 5.27524 7.38999C5.77049 6.91138 6.25326 6.42028 6.74019 5.92919C7.41857 5.24666 7.41857 4.44759 6.73603 3.76089C6.34898 3.36968 5.96194 2.9868 5.57489 2.59559C5.17535 2.19605 4.77998 1.79236 4.37629 1.39699C3.72288 0.760229 2.90717 0.760229 2.25792 1.40115C1.75851 1.89224 1.2799 2.39582 0.772157 2.87859C0.301873 3.3239 0.0646494 3.8691 0.0147076 4.50585C-0.0643668 5.54214 0.189504 6.52017 0.547419 7.47322C1.2799 9.44592 2.39526 11.198 3.74785 12.8045C5.57489 14.977 7.75568 16.6958 10.3069 17.936C11.4555 18.4937 12.6458 18.9223 13.9401 18.9931C14.8308 19.043 15.6049 18.8183 16.225 18.1233C16.6495 17.6488 17.1281 17.216 17.5776 16.7624C18.2434 16.0882 18.2476 15.2724 17.5859 14.6066C16.7951 13.8117 16.0002 13.0209 15.2053 12.2302Z" fill="#333333"/>
</svg>
